<?xml version="1.0" encoding="UTF-8" standalone="no"?>

<svg 
xmlns="http://www.w3.org/2000/svg"
width="800" height="600">

<path stroke="black" stroke-width="1" fill="none" 
 d="M 577.8142 332.4716 -187.7401 100.2506"  />

<path stroke="black" stroke-width="1" fill="none" 
 d="M 577.8142 332.4716 195.0371 216.3611"  />

<path stroke="black" stroke-width="1" fill="none" 
 d="M 195.0371 216.3611 -187.7401 100.2506"  />

<path stroke="black" stroke-width="1" fill="none" 
 d="M 195.0371 216.3611 197.3593 208.7055"  />

<path style="fill:#000000;fill-rule:evenodd;stroke:none;stroke-width:1px;stroke-linecap:butt;stroke-linejoin:miter;stroke-opacity:1;fill-opacity:0.23529412" 
 d="M 575.4920 340.1271 577.8142 332.4716 -187.7401 100.2506 -190.0623 107.9061"  />

<path stroke="black" stroke-width="1" fill="none" 
 d="M 33.3728 563.9053 341.0651 -174.5563"  />

<path stroke="black" stroke-width="1" fill="none" 
 d="M 33.3728 563.9053 187.2189 194.6745"  />

<path stroke="black" stroke-width="1" fill="none" 
 d="M 187.2189 194.6745 341.0651 -174.5563"  />

<path stroke="black" stroke-width="1" fill="none" 
 d="M 187.2189 194.6745 194.6035 197.7515"  />

<path style="fill:#000000;fill-rule:evenodd;stroke:none;stroke-width:1px;stroke-linecap:butt;stroke-linejoin:miter;stroke-opacity:1;fill-opacity:0.23529412" 
 d="M 25.9881 560.8284 33.3728 563.9053 341.0651 -174.5562 333.6805 -177.6331"  />

<path stroke="black" stroke-width="1" fill="none" 
 d="M -117.7795 -68.9596 612.2174 258.3087"  />

<path stroke="black" stroke-width="1" fill="none" 
 d="M -117.7795 -68.9596 247.2189 94.6745"  />

<path stroke="black" stroke-width="1" fill="none" 
 d="M 247.2189 94.6745 612.2174 258.3087"  />

<path stroke="black" stroke-width="1" fill="none" 
 d="M 247.2189 94.6745 243.9463 101.9745"  />

<path style="fill:#000000;fill-rule:evenodd;stroke:none;stroke-width:1px;stroke-linecap:butt;stroke-linejoin:miter;stroke-opacity:1;fill-opacity:0.23529412" 
 d="M -114.5068 -76.2595 -117.7795 -68.9596 612.2174 258.3087 615.4901 251.0087"  />

<circle stroke="black" stroke-width="1" fill="none" 
 cx="200.00000" cy="200.00000" r="32.00000"  />

<circle stroke="black" stroke-width="1" fill="none" 
 cx="200.00000" cy="200.00000" r="200.00000"  />

<path stroke="black" stroke-width="1" fill="none" 
 d="M 200.0000 200.0000 200.0000 200.0000"  />

<path stroke="black" stroke-width="1" fill="none" 
 d="M 200.0000 200.0000 213.0907 170.8001"  />

</svg>
