<?xml version="1.0" encoding="UTF-8" standalone="no"?>

<svg 
xmlns="http://www.w3.org/2000/svg"
width="800" height="600">

<circle stroke="none" stroke-width="1" fill="black" 
 cx="400.00000" cy="300.00000" r="3.00000"  />

<path stroke="black" stroke-width="1" fill="none" 
 d="M 1266.1661 -220.8707 -466.0309 778.8762"  />

<path stroke="black" stroke-width="1" fill="none" 
 d="M 400.0676 279.0027 390.0702 261.6808"  />

<path style="fill:#000000;fill-rule:evenodd;stroke:none;stroke-width:1px;stroke-linecap:butt;stroke-linejoin:miter;stroke-opacity:1;fill-opacity:0.23529412" 
 d="M 1276.1636 -203.5487 1266.1661 -220.8707 -466.0308 778.8762 -456.0333 796.1981"  />

<path stroke="black" stroke-width="1" fill="none" 
 d="M 1266.0306 778.8765 -466.1659 -220.8711"  />

<path stroke="black" stroke-width="1" fill="none" 
 d="M 399.9324 279.0027 409.9298 261.6808"  />

<path style="fill:#000000;fill-rule:evenodd;stroke:none;stroke-width:1px;stroke-linecap:butt;stroke-linejoin:miter;stroke-opacity:1;fill-opacity:0.23529412" 
 d="M 1256.0332 796.1985 1266.0306 778.8765 -466.1659 -220.8711 -476.1634 -203.5491"  />

<circle stroke="black" stroke-width="1" fill="none" 
 cx="400.00000" cy="278.88559" r="30.72000"  />

<circle stroke="black" stroke-width="1" fill="none" 
 cx="400.00000" cy="300.00000" r="600.00000"  />

<circle stroke="none" stroke-width="1" fill="blue" 
 cx="400.00000" cy="-300.00006" r="3.00000"  />

<circle stroke="none" stroke-width="1" fill="green" 
 cx="400.00000" cy="279.04175" r="3.00000"  />

<path stroke="black" stroke-width="1" fill="none" 
 d="M 400.0000 300.0000 400.0000 -300.0001"  />

<path stroke="black" stroke-width="1" fill="none" 
 d="M 400.0000 300.0000 400.0000 279.0418"  />

<path stroke="black" stroke-width="1" fill="none" 
 d="M 400.0000 278.8856 400.0000 279.0418"  />

</svg>
